<svg xmlns="http://www.w3.org/2000/svg" viewBox="0 0 512 512">
  <g transform="translate(0,512) scale(0.1,-0.1)" fill="black">
    <path d="M868 4942 c-48 -12 -68 -21 -68 -32 0 -21 76 -329 83 -336 6 -7 119 15 138 26 11 7 8 33 -20 147 -50 208 -51 213 -59 212 -4 -1 -37 -9 -74 -17z"/>
    <path d="M3811 4884 c-118 -43 -211 -146 -235 -260 -6 -27 -12 -32 -46 -37 -91 -12 -190 -90 -233 -185 -34 -73 -31 -189 6 -264 34 -70 101 -130 173 -158 53 -19 76 -20 583 -20 l528 0 61 31 c197 98 218 353 42 488 -31 23 -49 46 -56 72 -50 168 -227 266 -395 219 -34 -10 -38 -8 -79 31 -90 86 -243 122 -349 83z m184 -163 c55 -25 89 -68 115 -146 12 -36 25 -65 29 -65 4 0 18 12 32 26 74 82 172 107 239 61 52 -34 75 -82 75 -151 l0 -60 49 -12 c30 -8 62 -25 80 -44 27 -26 31 -37 31 -85 0 -48 -4 -58 -33 -87 l-32 -33 -518 -3 -518 -3 -34 23 c-47 32 -71 68 -77 116 -7 53 26 124 71 152 45 27 109 27 135 -1 19 -20 20 -20 82 -3 35 9 68 20 72 24 13 12 -1 47 -35 86 -26 29 -30 40 -25 71 19 117 151 185 262 134z"/>
    <path d="M1341 4725 c-52 -85 -92 -157 -90 -158 18 -15 131 -78 133 -76 9 10 176 288 181 300 4 10 -15 26 -58 52 -35 20 -66 37 -68 37 -3 0 -47 -70 -98 -155z"/>
    <path d="M353 4562 c-37 -60 -39 -68 -25 -78 10 -6 80 -49 158 -96 l140 -86 42 69 41 68 -137 84 c-75 46 -146 89 -157 95 -18 9 -25 3 -62 -56z"/>
    <path d="M958 4467 c-115 -43 -194 -124 -228 -234 -24 -79 -25 -132 -4 -204 24 -80 76 -152 144 -198 72 -47 141 -65 229 -58 86 6 149 35 215 97 129 122 149 312 50 457 -39 57 -75 88 -144 123 -56 29 -203 38 -262 17z m201 -167 c144 -73 143 -279 -2 -349 -153 -74 -321 64 -277 227 13 50 57 103 102 125 46 23 130 21 177 -3z"/>
    <path d="M1675 4358 c-88 -23 -161 -42 -163 -43 -4 -4 30 -139 37 -147 7 -8 331 70 345 83 5 4 1 38 -9 78 -13 53 -21 71 -34 70 -9 0 -88 -19 -176 -41z"/>
    <path d="M405 4048 c-88 -23 -162 -42 -164 -44 -1 -1 5 -37 15 -78 14 -59 21 -75 33 -72 9 2 86 21 171 41 85 21 159 41 163 45 4 3 0 39 -10 78 -12 52 -21 72 -32 71 -9 0 -88 -19 -176 -41z"/>
    <path d="M1476 3889 c-20 -34 -38 -66 -39 -71 -2 -6 306 -201 309 -195 0 1 19 32 42 68 l41 67 -137 83 c-75 45 -147 89 -158 96 -20 13 -24 10 -58 -48z"/>
    <path d="M661 3609 c-50 -82 -89 -154 -86 -159 7 -11 125 -83 129 -79 19 27 187 311 185 313 -17 14 -121 76 -128 76 -4 0 -49 -68 -100 -151z"/>
    <path d="M1179 3668 l-76 -19 43 -177 c24 -97 43 -178 44 -179 1 -4 136 31 144 37 7 7 -70 363 -77 359 -1 -1 -36 -10 -78 -21z"/>
    <path d="M2035 3375 c-279 -44 -528 -171 -671 -343 -118 -141 -371 -724 -554 -1275 -52 -157 -53 -159 -79 -153 -107 23 -225 37 -278 33 -94 -7 -174 -54 -240 -143 -29 -38 -52 -73 -50 -78 2 -5 30 -29 64 -53 l61 -43 32 50 c34 53 79 93 118 105 22 6 29 -3 13 -20 -19 -21 -61 -136 -70 -197 -15 -89 -3 -145 70 -343 l62 -170 6 -205 c7 -222 7 -223 69 -292 62 -69 101 -83 227 -83 171 0 182 8 355 269 114 174 165 265 206 371 l23 60 1 -272 0 -273 -115 0 -115 0 0 -80 0 -80 1800 0 1800 0 0 80 0 80 -92 0 -93 0 3 542 c2 581 6 627 56 761 l23 61 6 -107 c18 -284 96 -447 236 -487 33 -9 34 -7 46 91 6 52 5 57 -19 72 -14 10 -35 35 -46 57 -42 83 -51 152 -60 475 -9 347 -28 493 -93 720 -71 245 -160 409 -297 545 -127 128 -273 211 -458 262 -73 20 -107 22 -692 29 -540 6 -635 9 -780 28 -183 23 -353 26 -475 6z m470 -166 c141 -19 234 -22 775 -29 678 -8 657 -6 807 -75 278 -128 435 -357 528 -771 22 -97 26 -133 21 -194 -9 -114 -40 -228 -94 -347 -111 -244 -112 -252 -112 -894 l0 -530 -25 -24 c-24 -25 -26 -25 -205 -25 -119 0 -180 4 -180 11 0 14 69 114 123 176 88 103 120 247 121 548 1 165 -2 211 -17 264 -26 92 -66 176 -127 265 -67 100 -81 135 -89 221 l-6 70 -79 3 -79 3 6 -83 c4 -46 9 -94 12 -108 6 -23 -2 -29 -97 -81 -269 -148 -508 -219 -732 -219 -146 0 -282 34 -379 93 l-38 23 81 92 c45 51 80 96 78 100 -2 4 -27 29 -56 56 -52 49 -53 49 -72 30 -10 -10 -108 -122 -218 -248 -312 -357 -325 -388 -377 -870 -19 -176 -35 -326 -35 -333 0 -10 -23 -13 -89 -13 l-90 0 5 388 c2 213 6 413 8 444 4 51 21 90 160 358 86 165 156 304 156 308 0 15 -129 77 -138 67 -15 -16 -312 -592 -312 -604 0 -18 -37 -29 -180 -51 -74 -12 -154 -31 -178 -42 -52 -25 -85 -77 -107 -173 -18 -79 -71 -216 -112 -291 -61 -110 -249 -383 -271 -393 -68 -32 -195 0 -206 51 -3 13 -7 106 -9 208 l-4 185 -67 180 c-77 204 -84 258 -48 353 29 75 49 102 87 118 50 20 84 18 189 -16 222 -71 280 -120 279 -235 -1 -59 -28 -88 -99 -106 l-44 -11 0 -79 c0 -91 -1 -90 91 -63 151 45 213 126 212 276 0 55 -6 80 -32 132 -48 98 -134 163 -278 210 -29 10 -53 19 -53 21 0 2 25 77 56 167 134 390 280 754 404 1007 60 123 90 170 136 221 100 108 247 191 426 240 164 45 332 50 573 19z m1505 -1750 c37 -58 69 -131 84 -191 6 -24 1 -32 -41 -62 -94 -69 -203 -89 -329 -61 -44 9 -95 26 -115 36 -41 20 -124 109 -112 119 5 3 51 23 103 43 52 21 154 68 225 106 72 38 133 70 138 70 4 1 25 -26 47 -60z m-1338 -149 c46 -21 113 -46 150 -55 62 -16 67 -19 73 -49 12 -59 47 -161 73 -208 l25 -47 -49 -172 -49 -172 -70 -36 c-93 -49 -127 -97 -133 -186 l-4 -65 -245 0 -245 0 6 58 c69 633 70 636 137 762 17 33 68 102 112 154 l80 95 29 -20 c15 -11 65 -38 110 -59z m688 -107 c24 -31 58 -72 77 -92 20 -21 33 -45 33 -61 0 -21 -291 -668 -323 -717 -6 -9 -45 -13 -136 -13 -113 0 -130 2 -145 19 -35 38 -18 63 72 106 46 23 87 47 92 55 16 30 120 422 120 452 0 17 -18 71 -41 119 -22 49 -43 104 -46 124 l-6 35 64 1 c50 1 189 20 195 28 1 0 21 -24 44 -56z m-1650 -331 c0 -121 -3 -294 -7 -385 l-6 -167 -69 0 -68 0 0 374 0 374 53 10 c28 5 62 10 75 11 l22 1 0 -218z m2395 81 c-9 -129 -32 -257 -51 -295 -9 -17 -39 -59 -68 -92 -74 -88 -117 -160 -123 -206 l-6 -40 -268 0 -268 0 33 73 c18 39 86 185 150 324 64 138 116 256 116 262 0 16 18 23 40 16 18 -6 20 -15 20 -96 l0 -89 80 0 80 0 0 80 c0 57 4 80 13 80 6 0 22 3 35 6 22 6 22 5 22 -80 l0 -86 80 0 80 0 0 110 c0 93 3 110 18 119 9 6 19 11 21 11 2 0 0 -44 -4 -97z"/>
  </g>
</svg>
