<svg xmlns="http://www.w3.org/2000/svg" viewBox="0 0 512 512">
  <g transform="translate(0,512) scale(0.1,-0.1)" fill="black">
    <path d="M2350 5014 c-237 -43 -473 -172 -639 -350 -59 -63 -162 -203 -173 -235 -2 -4 -62 -17 -135 -28 -681 -104 -1131 -290 -1251 -516 -36 -68 -38 -179 -4 -243 121 -229 514 -395 1228 -517 l30 -5 -284 -1213 c-156 -666 -287 -1242 -289 -1278 -6 -84 13 -125 96 -201 175 -163 619 -282 1220 -328 200 -15 660 -12 878 5 603 49 1028 175 1195 353 55 59 72 106 65 181 -3 31 -133 601 -289 1268 l-284 1212 40 6 c23 4 118 22 211 40 554 110 899 273 1007 477 34 64 32 174 -4 244 -33 63 -137 161 -225 212 -222 129 -596 238 -1049 307 l-110 17 -20 36 c-36 68 -134 190 -209 260 -165 155 -374 259 -593 297 -104 18 -310 18 -412 -1z m416 -163 c374 -77 675 -366 770 -739 31 -124 32 -170 2 -177 -36 -7 -318 -34 -483 -45 -194 -13 -796 -13 -990 0 -165 11 -447 38 -482 45 -31 7 -30 53 1 177 96 378 400 667 782 742 104 21 292 19 400 -3z m-1336 -692 c-30 -110 -46 -279 -30 -319 7 -17 20 -35 29 -40 18 -9 277 -42 496 -62 92 -9 308 -13 635 -13 327 0 543 4 635 13 219 20 478 53 496 62 9 5 22 23 29 40 16 39 1 193 -31 318 -11 46 -19 85 -17 86 8 8 300 -49 458 -88 314 -79 537 -176 646 -282 38 -37 54 -61 60 -89 39 -208 -557 -443 -1351 -534 -303 -35 -417 -42 -785 -48 -657 -11 -1217 42 -1686 157 -465 115 -753 279 -731 416 22 134 293 279 721 384 181 44 439 91 444 80 1 -4 -6 -40 -18 -81z m258 -1075 c49 -4 86 -12 88 -18 3 -7 -2 -41 -11 -77 -19 -82 -19 -89 4 -89 15 0 22 16 37 86 l19 86 65 -7 c169 -15 419 -25 670 -25 251 0 501 10 670 25 l65 7 19 -86 c15 -70 22 -86 37 -86 23 0 23 3 3 91 -9 39 -13 73 -9 77 9 10 198 31 206 23 10 -9 579 -2452 579 -2483 0 -51 -121 -132 -286 -191 -163 -59 -424 -111 -723 -144 -199 -23 -886 -25 -1081 -5 -296 32 -555 81 -737 141 -178 58 -313 144 -313 199 0 24 568 2469 577 2485 3 4 12 6 21 3 10 -3 55 -8 100 -12z"/>
    <path d="M2430 4635 c-18 -22 2 -26 101 -23 70 3 84 6 87 21 3 15 -6 17 -86 17 -67 0 -93 -4 -102 -15z"/>
    <path d="M2185 4558 c-63 -35 -125 -82 -125 -94 0 -23 26 -16 91 26 34 22 66 40 71 40 4 0 8 9 8 20 0 22 -15 25 -45 8z"/>
    <path d="M1884 4268 c-49 -78 -67 -138 -41 -138 15 0 100 158 91 171 -10 17 -24 9 -50 -33z"/>
    <path d="M912 4029 c-153 -30 -236 -197 -166 -337 44 -89 116 -132 221 -132 61 0 144 39 178 85 137 179 -14 427 -233 384z m106 -185 c28 -31 28 -64 1 -98 -16 -20 -29 -26 -59 -26 -69 0 -107 82 -57 127 42 39 77 38 115 -3z"/>
    <path d="M4111 4029 c-128 -25 -215 -163 -182 -289 39 -149 204 -224 341 -155 245 124 111 497 -159 444z m107 -182 c48 -45 11 -127 -58 -127 -65 0 -101 66 -64 118 31 45 78 49 122 9z"/>
    <path d="M1691 2663 c-22 -78 -34 -143 -28 -149 3 -4 13 -4 21 -1 13 5 46 122 46 166 0 35 -28 23 -39 -16z"/>
    <path d="M3390 2679 c0 -44 33 -161 46 -166 8 -3 18 -3 21 1 6 6 -6 71 -28 149 -11 39 -39 51 -39 16z"/>
    <path d="M1690 2207 c-97 -27 -141 -71 -174 -173 -13 -39 -29 -62 -65 -93 -97 -81 -116 -185 -57 -305 53 -107 146 -139 286 -97 52 16 75 19 84 11 8 -5 16 -41 18 -78 6 -81 43 -163 104 -229 l42 -45 -15 -96 c-13 -78 -14 -122 -5 -244 9 -133 13 -153 35 -187 50 -76 169 -99 245 -49 l40 27 44 -43 c35 -35 53 -46 91 -51 69 -11 132 23 166 89 l25 48 -17 130 c-10 72 -16 132 -15 133 2 1 46 -5 98 -14 l94 -17 -3 -174 c-2 -170 -2 -176 21 -210 53 -78 137 -101 217 -60 57 29 77 69 96 195 9 61 19 120 23 133 4 12 39 43 82 72 l74 49 71 -68 c38 -37 82 -75 96 -85 32 -20 345 -126 374 -126 40 1 102 37 124 74 27 43 30 110 7 154 -20 39 -57 66 -169 127 -52 28 -92 56 -97 69 -5 11 -16 62 -25 113 -16 86 -16 94 0 145 10 29 19 55 21 57 2 2 22 -13 45 -32 22 -20 56 -43 75 -52 103 -49 166 85 69 145 -80 50 -140 146 -165 268 -21 105 -47 159 -106 222 -53 57 -120 95 -205 115 -87 20 -159 19 -281 -5 -135 -27 -336 -39 -643 -40 -238 0 -252 1 -299 23 -32 15 -62 40 -90 76 -57 75 -118 105 -216 108 -41 2 -95 -3 -120 -10z m178 -162 c12 -9 35 -36 52 -60 35 -51 95 -89 181 -116 53 -17 93 -19 312 -19 311 1 527 13 632 36 44 10 121 18 170 18 79 1 97 -2 146 -27 149 -73 180 -281 80 -534 l-20 -50 30 -154 c17 -85 37 -164 45 -176 7 -12 52 -43 99 -68 48 -26 85 -49 83 -50 -2 -2 -49 13 -105 33 l-102 37 -143 134 -143 133 -43 -5 c-41 -4 -44 -3 -86 45 -25 28 -49 47 -55 44 -18 -12 -13 -27 24 -67 19 -22 35 -43 35 -48 0 -13 -124 -50 -206 -62 -52 -7 -98 -7 -156 1 -105 14 -307 66 -377 96 -103 46 -126 31 -181 -119 -37 -99 -40 -117 -40 -208 0 -77 -3 -99 -14 -99 -22 0 -30 225 -11 340 26 160 24 170 -39 224 -67 57 -96 113 -96 187 -1 92 -44 161 -122 194 -49 20 -80 19 -158 -5 -106 -32 -127 -25 -137 47 -5 36 -1 41 59 99 55 53 66 69 81 123 15 53 22 64 50 76 43 19 127 19 155 0z m494 -1116 c3 -41 9 -101 12 -134 5 -53 1 -45 -29 65 -42 152 -43 162 -12 151 19 -7 23 -18 29 -82z m575 -7 c-10 -11 -27 -71 -41 -143 l-24 -124 -1 100 c-1 163 5 180 63 184 18 1 18 0 3 -17z"/>
    <path d="M2851 1578 c1 -72 20 -132 43 -136 16 -3 18 0 12 25 -4 15 -9 58 -13 96 -5 57 -9 67 -24 67 -16 0 -19 -8 -18 -52z"/>
  </g>
</svg>
